<svg viewBox="0 0 320 240" xmlns="http://www.w3.org/2000/svg">
  <defs>
    <linearGradient id="ai-bg" x1="0" y1="0" x2="320" y2="240" gradientUnits="userSpaceOnUse">
      <stop offset="0" stop-color="#0b1a3a"/>
      <stop offset="1" stop-color="#123a6b"/>
    </linearGradient>
  </defs>
  <rect width="320" height="240" fill="url(#ai-bg)"/>
  <g stroke="#3d7fd6" stroke-width="1" opacity="0.5">
    <path d="M40 60h60M40 60v40M100 60v-20M220 40h60M260 40v50M20 150h50M20 150v40M240 190h60M270 190v-40"/>
  </g>
  <g stroke="#5aa0f2" stroke-width="1.5" opacity="0.8">
    <circle cx="160" cy="120" r="46" fill="none"/>
    <path d="M160 74v92M114 120h92M128 88l64 64M128 152l64-64"/>
  </g>
  <circle cx="160" cy="120" r="8" fill="#8ec2ff"/>
  <circle cx="160" cy="74" r="4" fill="#8ec2ff"/>
  <circle cx="160" cy="166" r="4" fill="#8ec2ff"/>
  <circle cx="114" cy="120" r="4" fill="#8ec2ff"/>
  <circle cx="206" cy="120" r="4" fill="#8ec2ff"/>
  <circle cx="128" cy="88" r="4" fill="#8ec2ff"/>
  <circle cx="192" cy="88" r="4" fill="#8ec2ff"/>
  <circle cx="128" cy="152" r="4" fill="#8ec2ff"/>
  <circle cx="192" cy="152" r="4" fill="#8ec2ff"/>
</svg>
