<svg viewBox="0 0 320 240" xmlns="http://www.w3.org/2000/svg">
  <defs>
    <linearGradient id="java-bg" x1="0" y1="0" x2="320" y2="240" gradientUnits="userSpaceOnUse">
      <stop offset="0" stop-color="#2a1808"/>
      <stop offset="1" stop-color="#6b3312"/>
    </linearGradient>
  </defs>
  <rect width="320" height="240" fill="url(#java-bg)"/>
  <path d="M120 130h80v25a40 40 0 0 1-40 40 40 40 0 0 1-40-40v-25Z" fill="#3a2210" stroke="#f2a65a" stroke-width="2.5"/>
  <path d="M200 140h14a20 20 0 0 1 0 40h-14" fill="none" stroke="#f2a65a" stroke-width="2.5"/>
  <path d="M136 100c-9 10-9 18 0 28M158 95c-9 10-9 18 0 28M180 100c-9 10-9 18 0 28" fill="none" stroke="#f2c48a" stroke-width="3" stroke-linecap="round"/>
</svg>
